<svg width="170" height="76" viewBox="0 0 170 76" fill="none" xmlns="http://www.w3.org/2000/svg">
<rect width="151.617" height="75.8083" fill="#FF664F"/>
<rect x="156.7" width="13.2997" height="57.6371" fill="#FF664F"/>
<path d="M156.7 62.5088H170V75.8085H156.7V62.5088Z" fill="#FF664F"/>
<path d="M22.348 34.7834C20.3732 34.7834 18.6141 34.3862 17.0706 33.5918C15.5272 32.7747 14.3128 31.6624 13.4276 30.2552C12.5651 28.8479 12.1338 27.2363 12.1338 25.4204V10.7461H17.9899V25.114C17.9899 25.9766 18.1828 26.7596 18.5687 27.4633C18.9546 28.1442 19.4766 28.689 20.1349 29.0975C20.7931 29.4834 21.5308 29.6764 22.348 29.6764C23.2105 29.6764 23.9709 29.4834 24.6291 29.0975C25.3101 28.689 25.8548 28.1442 26.2634 27.4633C26.672 26.7596 26.8762 25.9766 26.8762 25.114V10.7461H32.5281V25.4204C32.5281 27.2363 32.0855 28.8479 31.2002 30.2552C30.3377 31.6624 29.1347 32.7747 27.5912 33.5918C26.0478 34.3862 24.3 34.7834 22.348 34.7834Z" fill="white"/>
<path d="M50.6372 34.5792L43.249 23.8883L33.7838 10.7461H40.8316L48.0496 21.3007L57.685 34.5792H50.6372ZM33.6136 34.5792L42.7042 21.6072L47.3687 24.2969L40.3209 34.5792H33.6136ZM48.5944 23.5138L43.964 20.9262L50.6372 10.7461H57.3445L48.5944 23.5138Z" fill="white"/>
<path d="M59.2879 34.5792V10.7461H69.2637C71.0115 10.7461 72.6117 11.0412 74.0644 11.6313C75.517 12.1988 76.7654 13.0159 77.8096 14.0827C78.8764 15.1495 79.6935 16.4093 80.261 17.862C80.8284 19.3146 81.1121 20.9149 81.1121 22.6626C81.1121 24.4104 80.8284 26.022 80.261 27.4973C79.6935 28.95 78.8764 30.2098 77.8096 31.2766C76.7654 32.3207 75.517 33.1378 74.0644 33.728C72.6117 34.2954 71.0115 34.5792 69.2637 34.5792H59.2879ZM65.0759 30.6297L64.2928 29.4721H69.0935C70.0468 29.4721 70.898 29.3132 71.647 28.9954C72.3961 28.6549 73.0316 28.1896 73.5537 27.5995C74.0984 27.0093 74.5183 26.2943 74.8134 25.4545C75.1085 24.6147 75.256 23.684 75.256 22.6626C75.256 21.6412 75.1085 20.7106 74.8134 19.8708C74.5183 19.0309 74.0984 18.3159 73.5537 17.7258C73.0316 17.1356 72.3961 16.6817 71.647 16.3639C70.898 16.0234 70.0468 15.8532 69.0935 15.8532H64.1907L65.0759 14.7637V30.6297Z" fill="white"/>
<path d="M20.2034 65.2437C18.6373 65.2437 17.2186 65.0621 15.9475 64.6989C14.6991 64.3131 13.5869 63.7683 12.6109 63.0647C11.6349 62.3383 10.761 61.4871 9.98926 60.5111L13.4961 56.5276C14.631 58.0484 15.7659 59.0698 16.9008 59.5918C18.0585 60.1139 19.2501 60.3749 20.4758 60.3749C21.0887 60.3749 21.6448 60.2955 22.1441 60.1366C22.6435 59.9777 23.0293 59.7507 23.3017 59.4556C23.5741 59.1379 23.7103 58.752 23.7103 58.298C23.7103 57.9576 23.6195 57.6511 23.4379 57.3788C23.279 57.1064 23.052 56.8681 22.757 56.6638C22.4619 56.4595 22.1101 56.2779 21.7015 56.119C21.2929 55.9374 20.8617 55.7899 20.4077 55.6764C19.9537 55.5402 19.4884 55.4267 19.0118 55.3359C17.6953 55.0409 16.549 54.6777 15.573 54.2464C14.597 53.8152 13.7798 53.2931 13.1216 52.6802C12.4861 52.0447 12.0094 51.3297 11.6916 50.5353C11.3738 49.7181 11.215 48.8102 11.215 47.8115C11.215 46.7447 11.4533 45.7687 11.9299 44.8834C12.4293 43.9755 13.0876 43.2038 13.9047 42.5682C14.7445 41.91 15.7092 41.4106 16.7987 41.0701C17.8882 40.707 19.0231 40.5254 20.2034 40.5254C21.7696 40.5254 23.1088 40.6956 24.221 41.0361C25.3559 41.3539 26.3206 41.8192 27.115 42.432C27.9321 43.0449 28.6244 43.7826 29.1919 44.6451L25.6169 48.0839C25.1403 47.4937 24.6182 47.0057 24.0508 46.6198C23.506 46.234 22.9159 45.9389 22.2803 45.7346C21.6675 45.5303 21.0319 45.4282 20.3737 45.4282C19.6927 45.4282 19.1026 45.519 18.6032 45.7006C18.1265 45.8595 17.752 46.0978 17.4796 46.4156C17.2073 46.7106 17.0711 47.0738 17.0711 47.5051C17.0711 47.8909 17.1846 48.2201 17.4116 48.4924C17.6385 48.7648 17.945 49.0145 18.3308 49.2415C18.7167 49.4458 19.1593 49.6273 19.6587 49.7862C20.158 49.9224 20.6801 50.0359 21.2248 50.1267C22.4732 50.3764 23.5968 50.7055 24.5955 51.1141C25.6169 51.5226 26.4908 52.022 27.2172 52.6122C27.9662 53.2023 28.5336 53.9059 28.9195 54.7231C29.3281 55.5175 29.5324 56.4481 29.5324 57.515C29.5324 59.1719 29.1238 60.5792 28.3067 61.7368C27.5122 62.8717 26.4114 63.7456 25.0041 64.3584C23.6195 64.9486 22.0193 65.2437 20.2034 65.2437Z" fill="white"/>
<path d="M37.6965 64.9032V46.1772H30.6147V41.0701H50.7366V46.1772H43.4845V64.9032H37.6965Z" fill="white"/>
<path d="M63.3 65.2437C61.4842 65.2437 59.8272 64.9372 58.3291 64.3244C56.8311 63.7115 55.5259 62.849 54.4137 61.7368C53.3015 60.6246 52.439 59.3195 51.8261 57.8214C51.2133 56.3233 50.9068 54.6777 50.9068 52.8845C50.9068 51.0914 51.2133 49.4458 51.8261 47.9477C52.439 46.4496 53.3015 45.1445 54.4137 44.0323C55.5259 42.92 56.8311 42.0575 58.3291 41.4447C59.8272 40.8318 61.4728 40.5254 63.266 40.5254C65.0591 40.5254 66.7048 40.8318 68.2028 41.4447C69.7009 42.0575 71.0061 42.92 72.1183 44.0323C73.2305 45.1445 74.0817 46.4496 74.6718 47.9477C75.2847 49.4458 75.5911 51.0914 75.5911 52.8845C75.5911 54.655 75.2847 56.3006 74.6718 57.8214C74.0817 59.3195 73.2305 60.6246 72.1183 61.7368C71.0061 62.849 69.7009 63.7115 68.2028 64.3244C66.7048 64.9372 65.0705 65.2437 63.3 65.2437ZM63.266 59.7961C64.1966 59.7961 65.0478 59.6259 65.8195 59.2854C66.614 58.9449 67.2949 58.4683 67.8624 57.8554C68.4525 57.2199 68.9065 56.4822 69.2242 55.6424C69.542 54.8025 69.7009 53.8833 69.7009 52.8845C69.7009 51.8858 69.542 50.9665 69.2242 50.1267C68.9065 49.2869 68.4525 48.5605 67.8624 47.9477C67.2949 47.3121 66.614 46.8241 65.8195 46.4837C65.0478 46.1432 64.1966 45.9729 63.266 45.9729C62.3354 45.9729 61.4728 46.1432 60.6784 46.4837C59.9067 46.8241 59.2257 47.3121 58.6356 47.9477C58.0454 48.5605 57.5914 49.2869 57.2737 50.1267C56.9786 50.9665 56.8311 51.8858 56.8311 52.8845C56.8311 53.8833 56.9786 54.8139 57.2737 55.6764C57.5914 56.5162 58.0454 57.2426 58.6356 57.8554C59.2257 58.4683 59.9067 58.9449 60.6784 59.2854C61.4728 59.6259 62.3354 59.7961 63.266 59.7961Z" fill="white"/>
<path d="M89.5342 65.2437C87.7411 65.2437 86.0841 64.9486 84.5633 64.3584C83.0652 63.7456 81.7601 62.8944 80.6479 61.8049C79.5357 60.6927 78.6731 59.3876 78.0603 57.8895C77.4701 56.3687 77.1751 54.7004 77.1751 52.8845C77.1751 51.1141 77.4929 49.4798 78.1284 47.9817C78.7639 46.4837 79.6378 45.1899 80.75 44.1003C81.8849 42.9881 83.2128 42.1256 84.7336 41.5128C86.277 40.8999 87.9567 40.5935 89.7725 40.5935C90.9075 40.5935 92.0197 40.741 93.1092 41.0361C94.1987 41.3312 95.2088 41.7738 96.1394 42.3639C97.0927 42.9314 97.9098 43.6123 98.5908 44.4068L95.0499 48.4584C94.5732 47.959 94.0625 47.5278 93.5177 47.1646C92.9957 46.7787 92.4169 46.4837 91.7813 46.2794C91.1458 46.0751 90.4648 45.9729 89.7385 45.9729C88.8306 45.9729 87.968 46.1432 87.1509 46.4837C86.3565 46.8014 85.6528 47.2667 85.04 47.8796C84.4498 48.4697 83.9845 49.1961 83.644 50.0586C83.3036 50.9211 83.1333 51.8858 83.1333 52.9526C83.1333 53.9967 83.3036 54.9501 83.644 55.8126C83.9845 56.6524 84.4612 57.3788 85.074 57.9916C85.6869 58.6045 86.4246 59.0698 87.2871 59.3876C88.1723 59.7053 89.1483 59.8642 90.2152 59.8642C90.9415 59.8642 91.6338 59.7621 92.292 59.5578C92.9503 59.3535 93.5518 59.0811 94.0965 58.7407C94.664 58.3775 95.1634 57.9689 95.5946 57.515L98.3865 61.9411C97.819 62.5766 97.0587 63.1441 96.1053 63.6435C95.1747 64.1428 94.1306 64.54 92.973 64.8351C91.8381 65.1075 90.6918 65.2437 89.5342 65.2437Z" fill="white"/>
<path d="M105.207 57.9235L103.709 53.0548L115.524 41.0701H122.367L105.207 57.9235ZM100.986 64.9032V41.0701H106.774V64.9032H100.986ZM116.273 64.9032L107.42 53.2591L111.336 49.8884L123.014 64.9032H116.273Z" fill="white"/>
<path d="M132.36 65.2437C130.794 65.2437 129.375 65.0621 128.104 64.6989C126.855 64.3131 125.743 63.7683 124.767 63.0647C123.791 62.3383 122.917 61.4871 122.146 60.5111L125.652 56.5276C126.787 58.0484 127.922 59.0698 129.057 59.5918C130.215 60.1139 131.406 60.3749 132.632 60.3749C133.245 60.3749 133.801 60.2955 134.3 60.1366C134.8 59.9777 135.186 59.7507 135.458 59.4556C135.73 59.1379 135.867 58.752 135.867 58.298C135.867 57.9576 135.776 57.6511 135.594 57.3788C135.435 57.1064 135.208 56.8681 134.913 56.6638C134.618 56.4595 134.266 56.2779 133.858 56.119C133.449 55.9374 133.018 55.7899 132.564 55.6764C132.11 55.5402 131.645 55.4267 131.168 55.3359C129.852 55.0409 128.705 54.6777 127.729 54.2464C126.753 53.8152 125.936 53.2931 125.278 52.6802C124.642 52.0447 124.166 51.3297 123.848 50.5353C123.53 49.7181 123.371 48.8102 123.371 47.8115C123.371 46.7447 123.61 45.7687 124.086 44.8834C124.586 43.9755 125.244 43.2038 126.061 42.5682C126.901 41.91 127.866 41.4106 128.955 41.0701C130.045 40.707 131.179 40.5254 132.36 40.5254C133.926 40.5254 135.265 40.6956 136.377 41.0361C137.512 41.3539 138.477 41.8192 139.271 42.432C140.089 43.0449 140.781 43.7826 141.348 44.6451L137.773 48.0839C137.297 47.4937 136.775 47.0057 136.207 46.6198C135.662 46.234 135.072 45.9389 134.437 45.7346C133.824 45.5303 133.188 45.4282 132.53 45.4282C131.849 45.4282 131.259 45.519 130.76 45.7006C130.283 45.8595 129.908 46.0978 129.636 46.4156C129.364 46.7106 129.227 47.0738 129.227 47.5051C129.227 47.8909 129.341 48.2201 129.568 48.4924C129.795 48.7648 130.101 49.0145 130.487 49.2415C130.873 49.4458 131.316 49.6273 131.815 49.7862C132.314 49.9224 132.836 50.0359 133.381 50.1267C134.63 50.3764 135.753 50.7055 136.752 51.1141C137.773 51.5226 138.647 52.022 139.374 52.6122C140.123 53.2023 140.69 53.9059 141.076 54.7231C141.484 55.5175 141.689 56.4481 141.689 57.515C141.689 59.1719 141.28 60.5792 140.463 61.7368C139.669 62.8717 138.568 63.7456 137.16 64.3584C135.776 64.9486 134.176 65.2437 132.36 65.2437Z" fill="white"/>
</svg>
