<svg width="136" height="55" viewBox="0 0 136 55" fill="none" xmlns="http://www.w3.org/2000/svg">
<path d="M132.31 38.1726C132.925 37.2548 134.167 37.009 135.085 37.6235C136.003 38.2381 136.248 39.4803 135.634 40.3981L132.31 38.1726ZM90.1729 50.2745L89.4667 52.1457L90.1729 50.2745ZM38.2279 31.9568L38.209 33.9567L38.2279 31.9568ZM5.36772 9.92327C5.68597 8.86554 6.80142 8.26608 7.85915 8.58433L25.0958 13.7705C26.1536 14.0888 26.753 15.2042 26.4348 16.262C26.1165 17.3197 25.0011 17.9192 23.9434 17.6009L8.62186 12.991L4.0119 28.3124C3.69365 29.3702 2.57819 29.9696 1.52047 29.6514C0.46274 29.3331 -0.136727 28.2177 0.181526 27.16L5.36772 9.92327ZM135.634 40.3981C132.078 45.7089 124.807 50.2319 116.486 52.6459C108.11 55.0758 98.304 55.4808 89.4667 52.1457L90.8791 48.4033C98.725 51.3643 107.618 51.0536 115.372 48.8043C123.18 46.539 129.467 42.4194 132.31 38.1726L135.634 40.3981ZM89.4667 52.1457C78.5883 48.0403 67.7621 38.635 60.0994 29.4394C56.2533 24.824 53.1303 20.174 51.1638 16.1461C50.1822 14.1354 49.4584 12.2186 49.0963 10.4979C48.7435 8.82154 48.6802 7.07984 49.3254 5.60094L52.9917 7.20035C52.8304 7.57 52.7298 8.33983 53.0106 9.67412C53.282 10.964 53.8628 12.5569 54.7583 14.3912C56.5462 18.0531 59.4683 22.4337 63.1723 26.8788C70.6097 35.804 80.9035 44.6386 90.8791 48.4033L89.4667 52.1457ZM49.3254 5.60094C51.235 1.22357 55.0687 -0.826079 58.7571 0.500869C62.2761 1.76684 64.5084 5.73056 64.2949 10.8586L60.2984 10.6923C60.4659 6.66721 58.742 4.74641 57.4031 4.2647C56.2336 3.84397 54.3078 4.18349 52.9917 7.20035L49.3254 5.60094ZM64.2949 10.8586C64.0781 16.0679 61.1331 21.8516 56.5866 26.2794C52.0046 30.7417 45.5955 34.0268 38.209 33.9567L38.2469 29.9569C44.385 30.0151 49.8198 27.286 53.7958 23.4138C57.8072 19.5072 60.1342 14.6361 60.2984 10.6923L64.2949 10.8586ZM38.209 33.9567C29.9499 33.8784 23.7753 32.1937 18.6038 28.3998C13.4974 24.6536 9.58018 18.999 5.52121 11.4463L9.04462 9.55274C13.0337 16.9754 16.6068 21.9738 20.9698 25.1746C25.2677 28.3276 30.5416 29.8838 38.2469 29.9569L38.209 33.9567Z" fill="url(#paint0_linear_1_177)"/>
<defs>
<linearGradient id="paint0_linear_1_177" x1="134.082" y1="49.0699" x2="-1.94087" y2="65.0836" gradientUnits="userSpaceOnUse">
<stop stop-color="#EC9422" stop-opacity="0"/>
<stop offset="1" stop-color="#EC9422"/>
</linearGradient>
</defs>
</svg>
