<svg width="48" height="48" viewBox="0 0 48 48" fill="none" xmlns="http://www.w3.org/2000/svg">
<path d="M9.79167 2H38.2083C42.5167 2 46 5.57265 46 9.99145V38.0085C46 42.4274 42.5167 46 38.2083 46H9.79167C5.48333 46 2 42.4274 2 38.0085V9.99145C2 5.57265 5.48333 2 9.79167 2Z" fill="#00005B"/>
<path d="M33.5151 17.4183C34.4868 17.4 35.4584 17.5833 36.3568 17.9866C37.1084 18.3166 37.7684 18.8116 38.2818 19.4533C38.7584 20.0766 39.1434 20.7733 39.3818 21.5433C39.6201 22.2766 39.7301 23.0283 39.7301 23.78C39.7301 24.22 39.7118 24.605 39.6934 24.9533C39.6568 25.3016 39.6384 25.5583 39.6201 25.7233C39.6018 25.8516 39.4918 25.9616 39.3634 25.9616C39.2534 25.9616 39.0518 25.98 38.7584 25.9983C38.4651 26.035 38.1168 26.0533 37.6951 26.0533C37.2734 26.0533 36.8334 25.98 36.3568 25.98H30.5451C30.6184 26.5483 30.8018 27.1166 31.1134 27.6116C31.4434 28.1066 31.9018 28.4916 32.4518 28.7116C33.1851 29.0233 33.9918 29.1883 34.7984 29.17C35.4401 29.1516 36.0818 29.0966 36.7051 28.9683C37.2734 28.895 37.8234 28.7483 38.3368 28.5466C38.4284 28.4733 38.4834 28.51 38.4834 28.6933V31.4983C38.4834 31.5716 38.4651 31.645 38.4468 31.7183C38.4101 31.7733 38.3734 31.81 38.3184 31.8466C37.7318 32.1033 37.1268 32.2866 36.4851 32.3966C35.6234 32.5616 34.7618 32.635 33.8818 32.6166C32.4884 32.6166 31.3151 32.3966 30.3618 31.975C29.4634 31.59 28.6751 30.985 28.0518 30.2333C27.4651 29.5183 27.0434 28.7116 26.7868 27.8316C26.5301 26.97 26.4018 26.0716 26.4018 25.155C26.4018 24.165 26.5484 23.1933 26.8601 22.24C27.1534 21.3233 27.6118 20.48 28.2351 19.7283C28.8401 18.995 29.5918 18.4083 30.4534 17.9866C31.3151 17.565 32.3418 17.4183 33.5151 17.4183ZM18.5551 13.0366C18.6834 13.0366 18.7751 13.0916 18.7934 13.1833L25.4851 31.975C25.5401 32.1766 25.4851 32.2683 25.3018 32.2683H21.4701C21.3418 32.2866 21.2134 32.195 21.1768 32.0666L19.6734 27.6666H12.8534L11.4601 31.9933C11.4234 32.1583 11.2768 32.2683 11.1118 32.25H7.66511C7.46344 32.25 7.40844 32.14 7.46344 31.92L13.3668 14.9983C13.4218 14.815 13.4768 14.65 13.5501 14.43C13.6234 14.045 13.6601 13.6416 13.6601 13.2383C13.6418 13.1466 13.7151 13.055 13.8068 13.0366H18.5551ZM16.2268 16.3733H16.1901C16.0251 17.1616 15.8234 17.95 15.5668 18.7383C15.2918 19.6183 15.0168 20.535 14.7234 21.4516C14.4851 22.3866 14.1918 23.2483 13.9168 24.0183H18.5734C18.4634 23.6333 18.3168 23.175 18.1518 22.6983C17.9868 22.2033 17.8218 21.6716 17.6568 21.1216L17.1251 19.435C16.9418 18.8666 16.7768 18.335 16.6301 17.8033C16.4834 17.29 16.3551 16.8133 16.2268 16.3733ZM30.9484 21.9833C30.7284 22.405 30.6001 22.845 30.5451 23.3033L34.8473 23.3026C35.1081 23.3013 35.3118 23.2972 35.4584 23.285C35.6051 23.2666 35.7518 23.23 35.8801 23.1383V22.955C35.8801 22.7166 35.8434 22.4966 35.7701 22.2766C35.4401 21.25 34.4684 20.5533 33.3868 20.59C32.3784 20.535 31.4251 21.0666 30.9484 21.9833Z" fill="#9999FF"/>
</svg>
