<svg width="48" height="48" viewBox="0 0 48 48" fill="none" xmlns="http://www.w3.org/2000/svg">
<path d="M16.3333 46.0002C20.3813 46.0002 23.6667 42.7148 23.6667 38.6668V31.3335H16.3333C12.2853 31.3335 9 34.6188 9 38.6668C9 42.7148 12.2853 46.0002 16.3333 46.0002Z" fill="#0ACF83"/>
<path d="M9 23.9998C9 19.9518 12.2853 16.6665 16.3333 16.6665H23.6667V31.3332H16.3333C12.2853 31.3332 9 28.0478 9 23.9998Z" fill="#A259FF"/>
<path d="M9 9.33333C9 5.28533 12.2853 2 16.3333 2H23.6667V16.6667H16.3333C12.2853 16.6667 9 13.3813 9 9.33333Z" fill="#F24E1E"/>
<path d="M23.667 2H31.0003C35.0483 2 38.3337 5.28533 38.3337 9.33333C38.3337 13.3813 35.0483 16.6667 31.0003 16.6667H23.667V2Z" fill="#FF7262"/>
<path d="M38.3337 23.9998C38.3337 28.0478 35.0483 31.3332 31.0003 31.3332C26.9523 31.3332 23.667 28.0478 23.667 23.9998C23.667 19.9518 26.9523 16.6665 31.0003 16.6665C35.0483 16.6665 38.3337 19.9518 38.3337 23.9998Z" fill="#1ABCFE"/>
</svg>
