<svg width="48" height="48" viewBox="0 0 48 48" fill="none" xmlns="http://www.w3.org/2000/svg">
<path d="M9.79167 3H38.2083C42.5167 3 46 6.48333 46 10.7917V38.1083C46 42.4167 42.5167 45.9 38.2083 45.9H9.79167C5.48333 45.9 2 42.4167 2 38.1083V10.7917C2 6.48333 5.48333 3 9.79167 3Z" fill="#330000"/>
<path d="M34.9452 18.6568C35.1102 18.6568 35.1835 18.7485 35.1835 18.9135V33.0301C35.1835 33.2318 35.1102 33.3235 34.9452 33.3235H31.3519C31.1685 33.3235 31.0769 33.2135 31.0769 33.0301V18.9135C31.0769 18.7301 31.1502 18.6568 31.3152 18.6568H34.9452ZM22.2035 13.9818C22.3502 13.9818 22.4235 14.0368 22.4419 14.1285L29.1335 33.0118C29.1885 33.2135 29.1335 33.3051 28.9502 33.3051H25.1185C24.9902 33.3235 24.8619 33.2318 24.8252 33.1035L23.3219 28.7401H16.5019L15.1085 33.0485C15.078 33.186 14.971 33.2853 14.8408 33.3039L11.3135 33.3051C11.1119 33.3051 11.0569 33.1951 11.1119 32.9751L17.0152 15.9801C17.0702 15.7968 17.1252 15.5951 17.1985 15.3751C17.2719 14.9901 17.3085 14.5868 17.3085 14.1835C17.2902 14.0918 17.3635 14.0001 17.4552 13.9818H22.2035ZM19.8752 17.3735H19.8385C19.6735 18.1618 19.4719 18.9501 19.2152 19.7385C18.9402 20.6185 18.6652 21.5351 18.3719 22.4518C18.1152 23.3868 17.8402 24.2485 17.5652 25.0185H22.2219C22.1119 24.6335 21.9652 24.1751 21.8002 23.6985C21.6352 23.2035 21.4702 22.6718 21.3052 22.1218L20.7735 20.4351C20.5902 19.8668 20.4252 19.3351 20.2785 18.8035C20.1319 18.2901 20.0035 17.8135 19.8752 17.3735ZM33.1669 12.5151C33.8819 12.5151 34.4319 12.7351 34.8352 13.1568C35.2386 13.5968 35.4585 14.1835 35.4402 14.7885C35.4585 15.4118 35.2385 16.0168 34.7985 16.4751C34.3769 16.9151 33.7535 17.1535 33.1302 17.1168C32.5252 17.1351 31.9386 16.8968 31.4986 16.4751C31.0769 16.0168 30.8569 15.4118 30.8752 14.7885C30.8569 14.1651 31.0952 13.5785 31.5352 13.1568C31.9752 12.7351 32.5619 12.5151 33.1669 12.5151Z" fill="#FF9A00"/>
</svg>
