<svg width="48" height="48" viewBox="0 0 48 48" fill="none" xmlns="http://www.w3.org/2000/svg">
<path d="M42.0113 2H5.9887C3.78578 2 2 3.78578 2 5.9887V42.0113C2 44.2142 3.78578 46 5.9887 46H42.0113C44.2142 46 46 44.2142 46 42.0113V5.9887C46 3.78578 44.2142 2 42.0113 2Z" fill="#FF3366"/>
<path d="M16.7043 15.8435C18.167 15.8435 19.3923 14.6971 19.3923 13.1946C19.3923 11.6931 18.167 10.5469 16.7043 10.5469C15.2417 10.5469 14.0167 11.6931 14.0167 13.1946C14.0167 14.697 15.2417 15.8435 16.7043 15.8435ZM11.1311 30.0267C10.9732 30.6987 10.8939 31.4244 10.8939 32.0163C10.8939 34.3488 12.1588 35.8972 14.8467 35.8972C17.0759 35.8972 18.8832 34.5735 20.1845 32.4358L19.3899 35.6246H23.8165L26.3465 25.4773C26.979 22.9081 28.2043 21.5745 30.0623 21.5745C31.5248 21.5745 32.4338 22.4841 32.4338 23.9856C32.4338 24.4206 32.3943 24.8945 32.2362 25.4086L30.9316 30.0727C30.734 30.7448 30.6553 31.4171 30.6553 32.0491C30.6553 34.2634 31.9593 35.883 34.6868 35.883C37.0189 35.883 38.8766 34.3816 39.9044 30.7845L38.1653 30.1131C37.2956 32.523 36.5446 32.9587 35.9516 32.9587C35.3586 32.9587 35.0424 32.5637 35.0424 31.7736C35.0424 31.4178 35.1218 31.023 35.24 30.5476L36.5052 26.0036C36.8213 24.9366 36.94 23.9904 36.94 23.1211C36.94 19.7217 34.8844 17.9476 32.3943 17.9476C30.0623 17.9476 27.6904 20.0512 26.5048 22.2651L27.3742 18.2914H20.6154L19.6666 21.7915H22.8289L20.8816 29.5877C19.3524 32.987 16.5435 33.0422 16.1909 32.9633C15.6121 32.8327 15.2419 32.6129 15.2419 31.8608C15.2419 31.4268 15.3209 30.8034 15.5186 30.0518L18.4834 18.2914H10.9732L10.0244 21.7915H13.1469L11.1313 30.0267" fill="white"/>
</svg>
