<svg width="48" height="48" viewBox="0 0 48 48" fill="none" xmlns="http://www.w3.org/2000/svg">
<path d="M9.79167 2.5H38.2083C42.5167 2.5 46 5.98333 46 10.2917V37.6083C46 41.9167 42.5167 45.4 38.2083 45.4H9.79167C5.48333 45.4 2 41.9167 2 37.6083V10.2917C2 5.98333 5.48333 2.5 9.79167 2.5Z" fill="#001E36"/>
<path d="M33.5521 17.9549C34.3037 17.9549 35.0737 18.0099 35.8254 18.1199C36.3754 18.1932 36.9071 18.3399 37.4021 18.5415C37.4754 18.5599 37.5487 18.6332 37.5854 18.7065C37.6037 18.7799 37.6221 18.8532 37.6221 18.9265V21.9149C37.6221 21.9882 37.5854 22.0615 37.5304 22.0982C37.3654 22.1349 37.2737 22.1349 37.2004 22.0982C36.6504 21.8049 36.0637 21.6032 35.4404 21.4749C34.7621 21.3282 34.0837 21.2365 33.3871 21.2365C33.0204 21.2182 32.6354 21.2732 32.2871 21.3649C32.0487 21.4199 31.8471 21.5482 31.7187 21.7315C31.6271 21.8782 31.5721 22.0615 31.5721 22.2265C31.5721 22.3915 31.6454 22.5565 31.7554 22.7032C31.9204 22.9049 32.1404 23.0699 32.3787 23.1982C32.8004 23.4182 33.2404 23.6199 33.6804 23.8032C34.6704 24.1332 35.6237 24.5915 36.5037 25.1415C37.1087 25.5265 37.6037 26.0399 37.9521 26.6632C38.2454 27.2499 38.3921 27.8915 38.3737 28.5515C38.3921 29.4132 38.1354 30.2749 37.6587 30.9899C37.1454 31.7232 36.4304 32.2915 35.6054 32.6215C34.7071 33.0065 33.6071 33.2082 32.2871 33.2082C31.4437 33.2082 30.6187 33.1349 29.7937 32.9699C29.1521 32.8599 28.5104 32.6582 27.9237 32.3832C27.7954 32.3099 27.7037 32.1815 27.7221 32.0349V28.8449C27.7221 28.7899 27.7404 28.7165 27.7954 28.6799C27.8504 28.6432 27.9054 28.6615 27.9604 28.6982C28.6754 29.1199 29.4271 29.4132 30.2337 29.5965C30.9304 29.7799 31.6637 29.8715 32.3971 29.8715C33.0937 29.8715 33.5887 29.7799 33.9187 29.6149C34.2121 29.4865 34.4137 29.1749 34.4137 28.8449C34.4137 28.5882 34.2671 28.3499 33.9737 28.1115C33.6804 27.8732 33.0754 27.5982 32.1771 27.2499C31.2421 26.9199 30.3804 26.4799 29.5737 25.9299C29.0054 25.5265 28.5287 24.9949 28.1804 24.3715C27.8871 23.7849 27.7404 23.1432 27.7587 22.5015C27.7587 21.7132 27.9787 20.9615 28.3821 20.2832C28.8404 19.5499 29.5187 18.9632 30.3071 18.5965C31.1687 18.1565 32.2504 17.9549 33.5521 17.9549ZM17.7671 13.4082C19.2704 13.4082 20.5171 13.5915 21.5437 13.9765C22.4604 14.2882 23.3037 14.8015 24.0004 15.4799C24.5871 16.0665 25.0454 16.7815 25.3387 17.5699C25.6137 18.3399 25.7604 19.1282 25.7604 19.9532C25.7604 21.5299 25.3937 22.8315 24.6604 23.8582C23.9271 24.8849 22.9004 25.6549 21.7087 26.0949C20.4621 26.5532 19.0871 26.7182 17.5837 26.7182L17.1913 26.7175C16.9604 26.7162 16.7893 26.7121 16.6671 26.6999C16.4837 26.6815 16.2271 26.6815 15.8787 26.6815V32.5665C15.8971 32.6949 15.8054 32.8049 15.6771 32.8232H12.1204C11.9737 32.8232 11.9004 32.7499 11.9004 32.5849V13.7199C11.9004 13.5915 11.9554 13.5182 12.0837 13.5182C12.3954 13.5182 12.6887 13.5182 13.1104 13.4999C13.5504 13.4815 14.0087 13.4815 14.5037 13.4632C14.9987 13.4449 15.5304 13.4449 16.0987 13.4265C16.6671 13.4082 17.2171 13.4082 17.7671 13.4082ZM18.2163 17.02L17.8954 17.0199C17.4187 17.0199 16.9971 17.0199 16.6487 17.0382C16.2821 17.0199 16.0254 17.0382 15.8971 17.0565V23.2165C16.1537 23.2349 16.3921 23.2532 16.6121 23.2532H17.5837C18.2987 23.2532 19.0137 23.1432 19.6921 22.9232C20.2787 22.7582 20.7921 22.4099 21.1954 21.9515C21.5804 21.4932 21.7637 20.8699 21.7637 20.0632C21.7821 19.4949 21.6354 18.9265 21.3421 18.4315C21.0304 17.9549 20.5904 17.5882 20.0587 17.3865C19.4773 17.1508 18.8555 17.0363 18.2163 17.02Z" fill="#31A8FF"/>
</svg>
