<svg width="48" height="48" viewBox="0 0 48 48" fill="none" xmlns="http://www.w3.org/2000/svg">
<path d="M11.2443 29.8043C11.2443 32.3483 9.16612 34.4264 6.62215 34.4264C4.07818 34.4264 2 32.3483 2 29.8043C2 27.2603 4.07818 25.1821 6.62215 25.1821H11.2443V29.8043Z" fill="#E01E5A"/>
<path d="M13.5732 29.8043C13.5732 27.2603 15.6514 25.1821 18.1954 25.1821C20.7394 25.1821 22.8175 27.2603 22.8175 29.8043V41.3776C22.8175 43.9215 20.7394 45.9997 18.1954 45.9997C15.6514 45.9997 13.5732 43.9215 13.5732 41.3776V29.8043Z" fill="#E01E5A"/>
<path d="M18.1954 11.2443C15.6514 11.2443 13.5732 9.16612 13.5732 6.62215C13.5732 4.07818 15.6514 2 18.1954 2C20.7394 2 22.8175 4.07818 22.8175 6.62215V11.2443H18.1954Z" fill="#36C5F0"/>
<path d="M18.1954 13.5732C20.7394 13.5732 22.8176 15.6514 22.8176 18.1954C22.8176 20.7394 20.7394 22.8175 18.1954 22.8175H6.62215C4.07818 22.8175 2 20.7394 2 18.1954C2 15.6514 4.07818 13.5732 6.62215 13.5732H18.1954Z" fill="#36C5F0"/>
<path d="M36.7559 18.1954C36.7559 15.6514 38.834 13.5732 41.378 13.5732C43.922 13.5732 46.0002 15.6514 46.0002 18.1954C46.0002 20.7394 43.922 22.8175 41.378 22.8175H36.7559V18.1954Z" fill="#2EB67D"/>
<path d="M34.4269 18.1954C34.4269 20.7394 32.3487 22.8176 29.8048 22.8176C27.2608 22.8176 25.1826 20.7394 25.1826 18.1954V6.62215C25.1826 4.07818 27.2608 2 29.8048 2C32.3487 2 34.4269 4.07818 34.4269 6.62215V18.1954Z" fill="#2EB67D"/>
<path d="M29.8048 36.7559C32.3487 36.7559 34.4269 38.834 34.4269 41.378C34.4269 43.922 32.3487 46.0002 29.8048 46.0002C27.2608 46.0002 25.1826 43.922 25.1826 41.378V36.7559H29.8048Z" fill="#ECB22E"/>
<path d="M29.8048 34.4264C27.2608 34.4264 25.1826 32.3483 25.1826 29.8043C25.1826 27.2603 27.2608 25.1821 29.8048 25.1821H41.3781C43.922 25.1821 46.0002 27.2603 46.0002 29.8043C46.0002 32.3483 43.922 34.4264 41.3781 34.4264H29.8048Z" fill="#ECB22E"/>
</svg>
