<svg width="48" height="48" viewBox="0 0 48 48" fill="none" xmlns="http://www.w3.org/2000/svg">
<g clip-path="url(#clip0_33_188)">
<path fill-rule="evenodd" clip-rule="evenodd" d="M34.6366 17.699C34.6366 17.699 31.0691 28.6113 30.7784 29.512C30.6727 28.5855 28.0565 9 28.0565 9C21.9784 9 18.7279 13.2208 17.0102 17.6732C17.0102 17.6732 12.6763 28.6113 12.3063 29.5378C12.2799 28.6885 11.6456 17.8019 11.6456 17.8019C11.2757 12.3458 6.14895 9.02574 2 9.02574L7.02102 38.7C13.3898 38.6743 16.8252 34.4792 18.6222 30.0268C18.6222 30.0268 22.4541 20.3756 22.6126 19.938C22.639 20.3498 25.361 38.7 25.361 38.7C31.7562 38.7 35.1916 34.7623 37.0414 30.4643L46 9.02574C39.6841 9.02574 36.3543 13.2208 34.6366 17.699Z" fill="#4353FF"/>
</g>
<defs>
<clipPath id="clip0_33_188">
<rect width="44" height="29.7" fill="white" transform="translate(2 9)"/>
</clipPath>
</defs>
</svg>
