<svg width="48" height="48" viewBox="0 0 48 48" fill="none" xmlns="http://www.w3.org/2000/svg">
<path d="M9.79167 2.5H38.2083C42.5167 2.5 46 5.98333 46 10.2917V37.6083C46 41.9167 42.5167 45.4 38.2083 45.4H9.79167C5.48333 45.4 2 41.9167 2 37.6083V10.2917C2 5.98333 5.48333 2.5 9.79167 2.5Z" fill="#470137"/>
<path d="M39.4923 12.0335V29.5235C39.4923 29.8535 39.5107 30.2202 39.529 30.6235C39.5657 31.0085 39.584 31.3752 39.6023 31.6869C39.6023 31.8152 39.5473 31.9252 39.419 31.9802C38.4657 32.3835 37.4573 32.6769 36.4307 32.8602C35.4957 33.0252 34.5607 33.1169 33.6073 33.1169C32.2507 33.1352 30.894 32.8602 29.6657 32.2919C28.5107 31.7602 27.5573 30.8802 26.8973 29.7985C26.219 28.6802 25.889 27.2869 25.889 25.6185C25.8707 24.2619 26.219 22.9235 26.8973 21.7502C27.594 20.5585 28.6023 19.5685 29.8123 18.9085C31.0957 18.1935 32.6357 17.8452 34.4507 17.8452C34.5423 17.8452 34.6707 17.8452 34.8357 17.8635C35.0007 17.8819 35.184 17.8819 35.404 17.9002V12.1069C35.404 11.9785 35.459 11.9052 35.5873 11.9052H39.309C39.4007 11.8869 39.474 11.9602 39.4923 12.0335ZM12.909 13.5002C13.0007 13.5002 13.0923 13.5185 13.1657 13.5369C13.239 13.5735 13.294 13.6285 13.349 13.7019C13.6973 14.4902 14.1007 15.2785 14.5223 16.0669C14.9623 16.8552 15.384 17.6252 15.8423 18.3952C16.2823 19.1652 16.6857 19.9352 17.0707 20.7235H17.1073C17.4923 19.9169 17.8957 19.1285 18.299 18.3585C18.7023 17.5885 19.124 16.8185 19.5457 16.0485C19.9673 15.2785 20.3707 14.4902 20.774 13.7385C20.7923 13.6652 20.829 13.5919 20.884 13.5552C20.9573 13.5185 21.0307 13.5002 21.1223 13.5185H24.9907C25.0823 13.5002 25.174 13.5552 25.1923 13.6469C25.2107 13.6652 25.174 13.7385 25.1373 13.7752L19.6373 22.8502L25.504 32.4752C25.5407 32.5485 25.559 32.6219 25.5407 32.6952C25.5223 32.7685 25.449 32.7135 25.339 32.7319H21.1407C20.8473 32.7319 20.6457 32.7135 20.5173 32.5302C20.1323 31.7602 19.729 31.0085 19.344 30.2385C18.959 29.4869 18.5373 28.7169 18.0973 27.9285C17.6573 27.1402 17.2173 26.3519 16.7773 25.5452H16.7407C16.3557 26.3335 15.934 27.1219 15.5123 27.9102C15.0907 28.6985 14.669 29.4869 14.2657 30.2569C13.844 31.0269 13.4223 31.8152 13.0007 32.5669C12.9273 32.7502 12.7807 32.7685 12.579 32.7685H8.54568C8.47235 32.7685 8.41735 32.8052 8.41735 32.7135C8.39902 32.6402 8.41735 32.5669 8.45402 32.5119L14.1557 23.1619L8.60068 13.7569C8.54568 13.6835 8.52735 13.6102 8.56402 13.5735C8.60068 13.5185 8.67402 13.5002 8.74735 13.5002H12.909ZM34.304 21.2552C33.589 21.2552 32.874 21.4019 32.2323 21.7319C31.609 22.0435 31.0773 22.5019 30.674 23.0885C30.2707 23.6752 30.069 24.4635 30.069 25.4169C30.0507 26.0585 30.1607 26.7002 30.3807 27.3052C30.564 27.8002 30.839 28.2402 31.2057 28.6069C31.554 28.9369 31.9757 29.1935 32.4523 29.3402C32.9473 29.5052 33.4607 29.5785 33.974 29.5785C34.249 29.5785 34.5057 29.5602 34.744 29.5419C34.9823 29.5602 35.184 29.5235 35.404 29.4502V21.3835C35.239 21.3469 35.074 21.3102 34.909 21.2919C34.7073 21.2735 34.5057 21.2552 34.304 21.2552Z" fill="#FF61F6"/>
</svg>
