<svg width="48" height="48" viewBox="0 0 48 48" fill="none" xmlns="http://www.w3.org/2000/svg">
<path d="M25.3293 37.3137C25.21 36.9557 25.0906 36.5381 24.9713 36.1801C24.0167 33.0775 23.3007 28.8412 22.883 24.3664C22.2267 16.1325 22.883 7.24242 25.4486 7.00376C26.8806 6.88443 28.0142 9.62903 28.7302 11.8963C29.6849 14.9989 30.4008 19.2351 30.8185 23.71C31.4748 31.9438 30.8185 40.834 28.2529 41.0726C26.9999 41.1323 25.9856 39.2827 25.3293 37.3137ZM27.7756 10.9417C26.8806 8.43573 25.9856 7.54075 25.4486 7.60041C23.8377 7.71974 22.6444 14.6409 23.4797 24.3067C23.8377 28.7816 24.5536 32.8985 25.5083 36.0011C26.5226 39.402 27.5966 40.5356 28.1932 40.476C29.8042 40.3566 30.9975 33.4355 30.1622 23.7697C29.8042 19.2948 29.0882 15.1779 28.1336 12.0753C28.0142 11.6577 27.8949 11.24 27.7756 10.9417Z" fill="#FD6D0B"/>
<path d="M17.2149 14.7007C16.4989 12.7318 16.0812 10.6435 17.0955 9.92749C19.1838 8.43586 25.389 14.8797 30.1026 21.6815C32.6682 25.3808 34.7565 29.08 36.0094 32.123C36.9044 34.3306 37.7994 37.1945 36.6061 37.9702C34.5178 39.4618 28.3126 33.018 23.599 26.2161C20.9738 22.5765 18.8855 18.8773 17.6325 15.8344C17.4535 15.4764 17.3342 15.1184 17.2149 14.7007ZM35.8901 33.4953C35.7708 33.1373 35.6514 32.7793 35.4724 32.3616C34.2195 29.3784 32.1312 25.7388 29.6252 22.0395C24.0764 14.0444 18.7662 9.50984 17.4535 10.4048C16.9762 10.7628 16.9165 12.3141 18.2292 15.536C19.4821 18.5193 21.5704 22.1589 24.0764 25.8581C29.6252 33.8533 34.9355 38.3878 36.2481 37.4928C36.6657 37.2542 36.7851 36.0012 35.8901 33.4953Z" fill="#FD6D0B"/>
<path d="M16.976 27.6479L6.47489 31.4069L6.2959 38.2087L12.6801 35.8818L19.1239 33.5548L16.976 27.6479Z" fill="#FFBE22"/>
<path d="M14.828 21.6812L8.38418 23.9484L2 26.2754L6.4749 31.4066L16.976 27.6477L14.828 21.6812Z" fill="#F89920"/>
<path d="M45.6155 17.3257C47.0475 21.2039 39.8876 27.3494 29.6849 31.0487C19.4821 34.6883 10.055 34.5093 8.62305 30.631C10.6517 36.3589 20.6158 38.0295 30.8185 34.3303C41.081 30.631 47.7038 23.0535 45.6155 17.3257Z" fill="#F0670B"/>
<path d="M29.6849 31.0487C39.8876 27.3494 47.0475 21.2636 45.6155 17.3257L8.62305 30.631C10.055 34.5093 19.4821 34.6883 29.6849 31.0487Z" fill="#F89920"/>
<path d="M24.613 16.9084C34.8158 13.2092 44.2429 13.4478 45.6749 17.3261C43.6462 11.5982 33.6821 9.92758 23.4794 13.6268C13.2766 17.3261 6.59411 24.9036 8.62273 30.6314C7.25043 26.6935 14.3506 20.548 24.613 16.9084Z" fill="#FFD00E"/>
<path d="M24.6139 16.9085C14.4112 20.6077 7.25135 26.6936 8.68332 30.6315L45.6758 17.3262C44.2438 13.3882 34.8167 13.2093 24.6139 16.9085Z" fill="#FFBE22"/>
<path d="M25.5087 35.9416C24.7331 33.376 24.0767 30.0347 23.6591 26.3951C28.3726 33.1373 34.4585 39.4618 36.5468 38.0298L36.1888 37.5525C34.8762 38.4475 29.5659 33.9129 24.0171 25.9178C23.8381 25.6791 23.6591 25.4405 23.4801 25.2018C23.4801 24.9035 23.4204 24.6052 23.4204 24.3068C22.6448 14.6411 23.8381 7.71989 25.3894 7.60056L25.3297 7.00391C22.7641 7.24257 22.1078 15.9537 22.7641 24.1875C20.7355 21.1446 19.1245 18.1613 18.1102 15.6554C16.7379 12.3738 16.7976 10.8225 17.3346 10.5242L16.9766 10.0468C15.9623 10.7628 16.4396 12.8511 17.0959 14.8201C17.2152 15.178 17.3942 15.5957 17.5136 15.9537C18.6472 18.758 20.5565 22.0992 22.8238 25.5001C23.2414 29.617 23.8977 33.376 24.7927 36.2399C24.9121 36.5979 25.0314 37.0155 25.1507 37.3735C25.8667 39.3425 26.881 41.1921 28.0743 41.1324L28.0146 40.5358C27.5373 40.4761 26.523 39.3425 25.5087 35.9416Z" fill="#FD6D0B"/>
</svg>
